/* XPM */ 
static char * add_xpm[] = {
"16 15 13 1",
" 	c None",
"!	c black",
"#	c #00D9D9",
"$	c #008888",
"%	c #0000FF",
"&	c #006F6F",
"'	c #004BCA",
"(	c #00A8A8",
")	c #006464",
"*	c #0058EA",
"+	c #0B66FF",
",	c #2B7AFF",
"-	c #4A8EFF",
"   #$           ",
"   #$           ",
"   #$      %    ",
"####$$&&  %'%   ",
"##(()))& %'*+%  ",
"   ()   %'*+,-% ",
"   (&  %'*+,-%  ",
"   && %'*+,-%   ",
"     %'*+,-%    ",
"    %'*+,-%     ",
"   %'*+,-%      ",
"  %%%%,-%       ",
"     %-%        ",
"     %%         ",
"     %          "};
