/* XPM */ 
static char * add_object_xpm[] = {
"16 15 15 1",
" 	c None",
"!	c black",
"#	c #00D9D9",
"$	c #008888",
"%	c #006F6F",
"&	c #00A8A8",
"'	c #006464",
"(	c #0B66FF",
")	c #0058EA",
"*	c #2B7AFF",
"+	c #6AA3FF",
",	c #4A8EFF",
"-	c #004BCA",
".	c #0040AA",
"/	c #00348A",
"   #$           ",
"   #$           ",
"   #$           ",
"####$$%%        ",
"##&&'''%        ",
"   &'           ",
"   &%   ((()    ",
"   %%  *((())   ",
"    ++,*(()))--.",
"     +,*((()--. ",
"      ,**./)--  ",
"      ,*(./(--  ",
"      ,((//(--  ",
"     **(.///--. ",
"     (((////-.. "};