/* XPM */ 
static char * add_market_xpm[] = {
"16 15 16 1",
" 	c None",
"!	c black",
"#	c #00D9D9",
"$	c #008888",
"%	c #006F6F",
"&	c #00286A",
"'	c #00A8A8",
"(	c #006464",
")	c #0040AA",
"*	c #00348A",
"+	c #004BCA",
",	c #0058EA",
"-	c #0B66FF",
".	c #2B7AFF",
"/	c #6AA3FF",
"0	c #4A8EFF",
"   #$           ",
"   #$           ",
"   #$           ",
"####$$%%  &     ",
"##''(((%  &     ",
"   '(   ))))*   ",
"   '%  ++ & **  ",
"   %%  ++ &     ",
"       +,,&,-   ",
"        ,-&--.  ",
"          & ..  ",
"       // & ..  ",
"        /0000   ",
"          &     ",
"          &     "};
