/* XPM */ 
static char * add_production_xpm[] = {
"16 15 10 1",
" 	c None",
"!	c black",
"#	c #00D9D9",
"$	c #008888",
"%	c #006F6F",
"&	c #00A8A8",
"'	c #006464",
"(	c #0058EA",
")	c #00348A",
"*	c #4A8EFF",
"   #$           ",
"   #$           ",
"   #$           ",
"####$$%%        ",
"##&&'''%        ",
"   &'    (()    ",
"   &%      ())  ",
"   %%       (() ",
"           *()) ",
"          *() ()",
"         *()   )",
"        *()    )",
"       *()      ",
"      *()       ",
"       )        "};
