/* XPM */ 
static char * arrowleft_xpm[] = {
"15 16 13 1",
" 	c None",
"!	c black",
"#	c #00D9D9",
"$	c #00CCCC",
"%	c #009191",
"&	c #00A8A8",
"'	c #008888",
"(	c #008080",
")	c #006464",
"*	c #005959",
"+	c #007777",
",	c #004F4F",
"-	c #006F6F",
"               ",
"      #        ",
"     ##        ",
"    $##        ",
"   $$##        ",
"  $$$#########%",
" &$$$$$$$$$$$''",
"&&&&&&&&&&&&(((",
"))))))))))))(((",
" )***********++",
"  ***,,,,,,,,,-",
"   **,,        ",
"    *,,        ",
"     ,,        ",
"      ,        ",
"               "};