/* XPM */ 
static char * arrowdown_xpm[] = {
"16 15 13 1",
" 	c None",
"!	c black",
"#	c #009191",
"$	c #008888",
"%	c #008080",
"&	c #007777",
"'	c #006F6F",
"(	c #00D9D9",
")	c #004F4F",
"*	c #00CCCC",
"+	c #005959",
",	c #00A8A8",
"-	c #006464",
"     #$%%&'     ",
"     ($%%&)     ",
"     (*%%+)     ",
"     (*,-+)     ",
"     (*,-+)     ",
"     (*,-+)     ",
"     (*,-+)     ",
"     (*,-+)     ",
" (((((*,-+))))) ",
"  ((((*,-+))))  ",
"   ****,-++++   ",
"    ***,-+++    ",
"     **,-++     ",
"      ,,--      ",
"       ,-       "};
