/* XPM */ 
static char * city_xpm[] = {
"16 15 16 1",
" 	c None",
"!	c black",
"#	c #0000FF",
"$	c #0058EA",
"%	c #0B66FF",
"&	c #2B7AFF",
"'	c #4A8EFF",
"(	c #609BFF",
")	c #590000",
"*	c #75A9FF",
"+	c #FF0000",
",	c #8AB6FF",
"-	c #FF5151",
".	c #9FC4FF",
"/	c #FF7D7D",
"0	c #B5D0FF",
"      ####      ",
"    ##$%&'##    ",
"   #$%%&''((#   ",
"  #$%&))))(**#  ",
"  #%&))++))*,#  ",
" #$&))+--+)),.# ",
" #%&)+-//-+),.# ",
" #&')+-//-+)..# ",
" #''))+--+)).0# ",
"  #(())++)).0#  ",
"  #(**))))..0#  ",
"   #*,,,..00#   ",
"    ##,..0##    ",
"      ####      ",
"                "};