/* XPM */ 
static char * delete_xpm[] = {
"16 15 13 1",
" 	c None",
"!	c black",
"#	c #808080",
"$	c #00FFFF",
"%	c #00BFBF",
"&	c #00D9D9",
"'	c #0000F0",
"(	c #004BCA",
")	c #0058EA",
"*	c #0B66FF",
"+	c #2B7AFF",
",	c #4A8EFF",
"-	c #00A8A8",
" #!!!!!#        ",
"#!$!!!%!#       ",
"!$$$!&%%!  '    ",
"!!$$$&%!! '('   ",
"!!!$$&!!!'()*'  ",
"!!&&&&%!!()*+,' ",
"!%%%!%%-!)*+,'  ",
"#!%!!!-!#*+,'   ",
" #!!!!!#*+,'    ",
"    '()*+,'     ",
"   '()*+,'      ",
"  ''''+,'       ",
"     ','        ",
"     ''         ",
"     '          "};