/* XPM */ 
static char * gui_xpm[] = {
"32 32 28 1",
" 	c None",
"!	c black",
"#	c #003F3F",
"$	c #005858",
"%	c #00BCBC",
"&	c #004C4C",
"'	c #002525",
"(	c #007D7D",
")	c #003399",
"*	c #0033CC",
"+	c #00FAFA",
",	c #0033FF",
"-	c #003366",
".	c #004F4F",
"/	c #3366FF",
"0	c #008000",
"1	c #0066FF",
"2	c #3333FF",
"3	c #808000",
"4	c #804000",
"5	c #008080",
"6	c #800080",
"7	c #000088",
"8	c #34FFFF",
"9	c #6666FF",
":	c #004080",
";	c #000066",
"<	c #000077",
"            ####                ",
"         $##%%##    $$          ",
"       $$%%&###     #$$$        ",
"      $%%$$$#        #$%$#      ",
"     $%%&$#           #$%$#     ",
"    $%%$$$             $$%$#    ",
"   $%%$$$               '#%%#   ",
"  $$%($$                 ##%$   ",
"  $%($$       )**)       $$%%#  ",
" #%+($$    )),******-    $$$%$  ",
" $%%$$$   ),,*,**)**))   $$$%.# ",
"#$+($$#$ -//0,1**00,**) .$.$.%# ",
"$%+$$##$#*000,,-002*,*)#$$$$$.$#",
"$%+$$$$#$3045,,**,,*,**$$.$$$%$#",
"$+%$$$#$*5065***3/,)***7$..$.$$#",
"$8%$$$.$5546,-**55/,),,).$.$..##",
"$8%$$$$$,*55,,**390,*5,-$.$#...$",
"$+%$$$$$),5,*::-500/55,-$#$..$#.",
"$%....$$#***):**506005)$$$$#$$$#",
"#$%$$$##.-,,*)**00440*)$$$$$#.$$",
" $8$.$$.$))**))**000,*-$$..#$.$ ",
" $$.$.#$$.-)*,**,1,**-$$#$#.$.. ",
" #$($$$$$..;))****)*).$.$#...$$ ",
"  #%$$$.$$....-<)<....#$##.$#$  ",
"  ##+$$##..#.$......#...$#$$$$  ",
"   #$($$$....$$$..$...$.$$$$$   ",
"   #$$$$$$$..$.$..$.$$$.$###    ",
"    $$$#$..$..$.#.....#$$#$     ",
"     $$$$$$$$$$..$$.#.$$##      ",
"      $$($.$#.$$.#$.$.$$#       ",
"        ($$$$$....$..$$         ",
"           $#$.$..$.            "};