/* XPM */ 
static char * gui_small_xpm[] = {
"16 16 21 1",
" 	c None",
"!	c black",
"#	c #004A4A",
"$	c #00B5B5",
"%	c #008A8A",
"&	c #006A6A",
"'	c #006060",
"(	c #005555",
")	c #0040AA",
"*	c #009F9F",
"+	c #007575",
",	c #0B66FF",
"-	c #33CA00",
".	c #00348A",
"/	c #2EB500",
"0	c #0058EA",
"1	c #004BCA",
"2	c #289F00",
"3	c #002460",
"4	c #30BF00",
"5	c #008080",
"     ###        ",
"   ##$%   &##   ",
"  #%$&     '%#  ",
" #%$&       (## ",
" #$&  ))))  &$# ",
"#*%+ ),,-,. *&$#",
"#$+*),/,0)))*&$#",
"#%&*.//0))1.*%'#",
"#+&%.,002/-3*%'#",
"#&&*),0)44..*%'#",
"#++5*.))).3*%%'#",
" #'+%*.33.*%+&# ",
" ##'+%*%*%%+&## ",
"  ##&++++++'##  ",
"   ##'''&'&##   ",
"     ######     "};