/* XPM */ 
static char * gui_big_xpm[] = {
"32 32 29 1",
" 	c None",
"!	c black",
"#	c #004A4A",
"$	c #008A8A",
"%	c #00FFFF",
"&	c #005151",
"'	c #006A6A",
"(	c #006060",
")	c #008888",
"*	c #005555",
"+	c #00EAEA",
",	c #006464",
"-	c #00DFDF",
".	c #00D5D5",
"/	c #0040AA",
"0	c #00348A",
"1	c #0058EA",
"2	c #007575",
"3	c #30BF00",
"4	c #33CA00",
"5	c #3CBA00",
"6	c #008080",
"7	c #2EB500",
"8	c #004BCA",
"9	c #289F00",
":	c #2BAA00",
";	c #0033CC",
"<	c #002460",
"=	c #003399",
"                                ",
"          ####$$  ####          ",
"        ##%&&$$     '(##        ",
"      ##%&&()        '*%##      ",
"     ##+&,(           (*+##     ",
"    ##%&('             (*-%#    ",
"   ##++('               (*-##   ",
"   #%.('                (**-#   ",
"  #+-&(      ////00      (*--#  ",
"  #-.('    //111111//    ((*-#  ",
" #%%*('   //1111111100   '(*..# ",
" #-.*('2 //13111145110/ $$'(*.# ",
" #-.*('26/777111458888/$$$'(*.# ",
"#%+&(('2/79:7111888////0$$'(*..#",
"#+.&('26/397411;488////0$$'(**.#",
"#-.&('260577118847//88/0$$$'(*.#",
"#..&('260;4411887:5//5/<$$$'(*.#",
"#..&('2608488888797/540<$$$'(*.#",
"#..&('2608888888379774=<$$2'(*.#",
" #.&('26608888;/437340<$$$2'(*# ",
" #.&&'26600;/////5430<0$$$2'((# ",
" #..&'266$00///////0<<$$$$2'((# ",
"  #.&2266$$0<=0000<<0$$$$$22(#  ",
"  #.,2266$$$$<<<<<<$$$$$$22((#  ",
"   #.(266$$$$$$$$$$$$$$$22''#   ",
"    #('262$$$$$$$$$$$$$$2''#    ",
"    #((('22$$$$$$$$$$$22''(#    ",
"     ##((''222$$$222222''##     ",
"       #*(''''2222''''((#       ",
"        ##*((**((***(**#        ",
"          ####****####          ",
"              ####              "};