/* XPM */ 
static char * help_xpm[] = {
"16 15 9 1",
" 	c None",
"!	c black",
"#	c #00348A",
"$	c #4A8EFF",
"%	c #2B7AFF",
"&	c #0B66FF",
"'	c #0040AA",
"(	c #0058EA",
")	c #004BCA",
"                ",
"     ######     ",
"    #$%%&&##    ",
"   #$%###'&##   ",
"   #%##  #(##   ",
"   #%## #((##   ",
"    ## #()##    ",
"      #()##     ",
"      #)##      ",
"      #)##      ",
"      #'##      ",
"       ##       ",
"      #$&##     ",
"      #&(##     ",
"       ###      "};