/* XPM */ 
static char * label_xpm[] = {
"16 15 14 1",
" 	c None",
"!	c black",
"#	c #0000FF",
"$	c #0058EA",
"%	c #0B66FF",
"&	c #2B7AFF",
"'	c #4A8EFF",
"(	c #609BFF",
")	c #75A9FF",
"*	c #8AB6FF",
"+	c white",
",	c #9FC4FF",
"-	c #006F6F",
".	c #B5D0FF",
"      ####      ",
"    ##$%&'##    ",
"   #$%%&''((#   ",
"  #$%&&''(())#  ",
"  #%&&''(())*#  ",
" #+++''(())**,# ",
" #%+-++(+++*++# ",
" #&+-++-)-+-++# ",
" #''-(--*,,-,-# ",
"  #(())***,,.#  ",
"  #())***,,,.#  ",
"   #)***,,..#   ",
"    ##*,,.##    ",
"      ####      ",
"                "};