/* XPM */ 
static char * map_xpm[] = {
"16 16 15 1",
" 	c None",
"!	c black",
"#	c #0040AA",
"$	c #00348A",
"%	c #004BCA",
"&	c #33CA00",
"'	c #2B7AFF",
"(	c #0B66FF",
")	c #2EB500",
"*	c #30BF00",
"+	c #2BAA00",
",	c #3CBA00",
"-	c #0058EA",
".	c #289F00",
"/	c #002460",
"      ##$%$     ",
"    ##&'(&($$   ",
"   #&))()'((*$  ",
"  #&))++),'-*)$ ",
"  #&)+.++,--(+$ ",
" #'*)+..+-(%%+*$",
" $'*)+++))%--)*/",
" %('))((-)-%%%&$",
" $'(-))---%-%##/",
" $--(-),,%-%##$/",
"  $--%-)+))*##/ ",
"  $%--%+..+*#$/ ",
"   /%###+)*%$/  ",
"    $/##$*$//   ",
"      /////     ",
"                "};