/* XPM */ 
static char * move_xpm[] = {
"16 15 17 1",
" 	c None",
"!	c black",
"#	c #00FFFF",
"$	c #00D9D9",
"%	c #009191",
"&	c #00CCCC",
"'	c #0000FF",
"(	c #00A8A8",
")	c #004BCA",
"*	c #008888",
"+	c #0058EA",
",	c #0B66FF",
"-	c #006F6F",
".	c #2B7AFF",
"/	c #4A8EFF",
"0	c #004F4F",
"1	c #0000F0",
"     #          ",
"     $$         ",
"%&&&&&&&   '    ",
"%%((((((( ')'   ",
"******** ')+,'  ",
"     -- ')+,./' ",
"     0 1)+,./'  ",
"      1)+,./'   ",
"     1)+,./'    ",
"    1),,./'     ",
"   1)+,./'      ",
"  1111./1       ",
"     1/1        ",
"     11         ",
"     1          "};