/* XPM */ 
static char * tree_xpm[] = {
"16 16 5 1",
" 	c None",
"!	c black",
"#	c #004BCA",
"$	c #6AA3FF",
"%	c #C0C0C0",
"  ######        ",
"  #$$$$#%       ",
"  ########      ",
"   %#%%%% #     ",
"   # # # # #    ",
"  #    #    #   ",
"####  #### #### ",
"#$$#% #$$#%#$$# ",
"####% ####%#### ",
" %%%% # #%% %%% ",
"     #   #      ",
"   ####   ####  ",
"   #$$#%  #$$#% ",
"   ####%  ####% ",
"    %%%%   %%%% ",
"                "};