/* XPM */ 
static char * tree_single_xpm[] = {
"16 16 7 1",
" 	c None",
"!	c black",
"#	c #000080",
"$	c #5BA4FD",
"%	c #C0C0C0",
"&	c #FF2424",
"'	c #FFB4B4",
"  ######        ",
"  #$$$$#%       ",
"  ########      ",
"   %#%%%% #     ",
"   # # # # #    ",
"  #    #    #   ",
"&&&&  #### #### ",
"&''&% #$$#%#$$# ",
"&&&&% ####%#### ",
" %%%%  ##%% %%% ",
"      #  #      ",
"     #    #     ",
"   ####  ####   ",
"   #$$#% #$$#%  ",
"   ####% ####%  ",
"    %%%%  %%%%  "};
