/* XPM */ 
static char * zoom_out_xpm[] = {
"16 15 12 1",
" 	c None",
"!	c black",
"#	c #00D9D9",
"$	c #00C6C6",
"%	c #00B9B9",
"&	c #00AAAA",
"'	c #009D9D",
"(	c #009191",
")	c #008888",
"*	c #007979",
"+	c #006464",
",	c #005959",
"                ",
"                ",
"                ",
"                ",
"                ",
"                ",
"   ##$%&'()*++  ",
"   #$%&'))*++,  ",
"   $%&'()*++,,  ",
"                ",
"                ",
"                ",
"                ",
"                ",
"                "};